<svg width="16" height="17" viewBox="0 0 16 17" fill="none" xmlns="http://www.w3.org/2000/svg">
<path fill-rule="evenodd" clip-rule="evenodd" d="M3.80799 7.0532C3.54764 6.79285 3.12553 6.79285 2.86518 7.0532C2.60483 7.31355 2.60483 7.73566 2.86518 7.99601L7.52553 12.6564C7.52759 12.6585 7.52967 12.6606 7.53177 12.6627C7.66246 12.7934 7.83392 12.8585 8.00521 12.8579C8.17518 12.8574 8.34498 12.7924 8.47466 12.6627C8.47675 12.6606 8.47881 12.6585 8.48087 12.6564L13.1412 7.99601C13.4016 7.73566 13.4016 7.31355 13.1412 7.0532C12.8809 6.79285 12.4588 6.79285 12.1984 7.0532L8.00321 11.2484L3.80799 7.0532Z" fill="#2D3440"/>
</svg>
